<svg xmlns="http://www.w3.org/2000/svg" viewBox="0 0 80 24" shape-rendering="crispEdges" fill="currentColor">
  <rect x="0" y="0" width="2" height="24"></rect>
  <rect x="3" y="0" width="1" height="24"></rect>
  <rect x="6" y="0" width="3" height="24"></rect>
  <rect x="10" y="0" width="1" height="24"></rect>
  <rect x="13" y="0" width="2" height="24"></rect>
  <rect x="17" y="0" width="1" height="24"></rect>
  <rect x="19" y="0" width="4" height="24"></rect>
  <rect x="25" y="0" width="1" height="24"></rect>
  <rect x="28" y="0" width="2" height="24"></rect>
  <rect x="32" y="0" width="3" height="24"></rect>
  <rect x="37" y="0" width="1" height="24"></rect>
  <rect x="40" y="0" width="2" height="24"></rect>
  <rect x="44" y="0" width="1" height="24"></rect>
  <rect x="47" y="0" width="3" height="24"></rect>
  <rect x="52" y="0" width="2" height="24"></rect>
  <rect x="56" y="0" width="1" height="24"></rect>
  <rect x="59" y="0" width="2" height="24"></rect>
  <rect x="63" y="0" width="4" height="24"></rect>
  <rect x="69" y="0" width="1" height="24"></rect>
  <rect x="72" y="0" width="2" height="24"></rect>
  <rect x="76" y="0" width="1" height="24"></rect>
  <rect x="78" y="0" width="2" height="24"></rect>
</svg>